<?xml version="1.0" encoding="utf-8"?>
<!-- Generator: Adobe Illustrator 28.0.0, SVG Export Plug-In . SVG Version: 6.00 Build 0)  -->
<svg version="1.1" id="图层_1" xmlns="http://www.w3.org/2000/svg" xmlns:xlink="http://www.w3.org/1999/xlink" x="0px" y="0px"
	 viewBox="0 0 255 255" style="enable-background:new 0 0 255 255;" xml:space="preserve">
<style type="text/css">
	.st0{fill:#FFFFFF;}
	.st1{fill:none;stroke:#CCCCCC;stroke-width:14;stroke-linecap:round;stroke-miterlimit:10;}
	.st2{fill:#FFFFFF;stroke:#CCCCCC;stroke-width:5;stroke-linecap:round;stroke-miterlimit:10;}
	.st3{fill:#CCCCCC;}
	.st4{font-family:'MicrosoftYaHei';}
	.st5{font-size:50px;}
</style>
<rect class="st0" width="255" height="255"/>
<path class="st1" d="M52.8-12.7v186c0,17.8,14.4,32.2,32.2,32.2h77.4c15.2,0,29.9,6.1,40.6,16.8l44.6,44.6"/>
<line class="st1" x1="-14.8" y1="46.2" x2="258.3" y2="46.2"/>
<path class="st1" d="M271.7,253.7l-49.8-49.8c-10.8-10.8-16.9-25.4-16.9-40.7V-16.3"/>
<line class="st1" x1="24.6" y1="-12.7" x2="24.6" y2="261.3"/>
<path class="st2" d="M53.5,58.5H23.7c-6.8,0-12.3-5.5-12.3-12.3l0,0c0-6.8,5.5-12.3,12.3-12.3h29.8c6.8,0,12.3,5.5,12.3,12.3l0,0
	C65.7,53,60.2,58.5,53.5,58.5z"/>
<path class="st2" d="M53.5,166.5H23.7c-6.8,0-12.3-5.5-12.3-12.3l0,0c0-6.8,5.5-12.3,12.3-12.3h29.8c6.8,0,12.3,5.5,12.3,12.3l0,0
	C65.7,161.1,60.2,166.5,53.5,166.5z"/>
<path class="st2" d="M205,58.5L205,58.5c-6.8,0-12.3-5.5-12.3-12.3l0,0c0-6.8,5.5-12.3,12.3-12.3l0,0c6.8,0,12.3,5.5,12.3,12.3l0,0
	C217.3,53,211.8,58.5,205,58.5z"/>
<path class="st2" d="M243.6,222.5l-21.1,21.1c-4.8,4.8-12.6,4.8-17.4,0l0,0c-4.8-4.8-4.8-12.6,0-17.4l21.1-21.1
	c4.8-4.8,12.6-4.8,17.4,0l0,0C248.4,210,248.4,217.7,243.6,222.5z"/>
<path class="st2" d="M205,136.2L205,136.2c-6.8,0-12.3-5.5-12.3-12.3l0,0c0-6.8,5.5-12.3,12.3-12.3l0,0c6.8,0,12.3,5.5,12.3,12.3
	l0,0C217.3,130.7,211.8,136.2,205,136.2z"/>
<path class="st2" d="M127.1,217.8L127.1,217.8c-6.8,0-12.3-5.5-12.3-12.3l0,0c0-6.8,5.5-12.3,12.3-12.3l0,0
	c6.8,0,12.3,5.5,12.3,12.3l0,0C139.3,212.3,133.9,217.8,127.1,217.8z"/>
<text transform="matrix(1 0 0 1 77.4997 112.3571)" class="st3 st4 st5">暂未</text>
<text transform="matrix(1 0 0 1 77.4997 172.3571)" class="st3 st4 st5">开画</text>
</svg>
