<?xml version="1.0" encoding="utf-8"?>
<!-- Generator: Adobe Illustrator 28.0.0, SVG Export Plug-In . SVG Version: 6.00 Build 0)  -->
<svg version="1.1" id="图层_1" xmlns="http://www.w3.org/2000/svg" xmlns:xlink="http://www.w3.org/1999/xlink" x="0px" y="0px"
	 viewBox="0 0 200 200" style="enable-background:new 0 0 200 200;" xml:space="preserve">
<style type="text/css">
	.st0{fill:#FFFFFF;}
</style>
<path class="st0" d="M176.6,44.6h-32.8V33.6c0-6-4.9-10.9-10.9-10.9H67.2c-6,0-10.9,4.9-10.9,10.9v10.9H23.4
	c-6,0-10.9,4.9-10.9,10.9v110.8c0,6,4.9,10.9,10.9,10.9h153.1c6,0,10.9-4.9,10.9-10.9V55.5C187.5,49.5,182.6,44.6,176.6,44.6z
	 M67.2,33.6h65.6v10.9H67.2V33.6z M176.6,166.4H23.4v-49.2h60.2v5.5c0,6,4.9,10.9,10.9,10.9h10.9c6,0,10.9-4.9,10.9-10.9v-5.5h60.2
	V166.4z M94.5,122.6v-21.9h10.9v21.9H94.5z M116.4,106.2v-5.5c0-6-4.9-10.9-10.9-10.9H94.5c-6,0-10.9,4.9-10.9,10.9v5.5H23.4V55.5
	h153.1v50.7H116.4z"/>
</svg>
