<?xml version="1.0" encoding="utf-8"?>
<!-- Generator: Adobe Illustrator 28.0.0, SVG Export Plug-In . SVG Version: 6.00 Build 0)  -->
<svg version="1.1" id="图层_1" xmlns="http://www.w3.org/2000/svg" xmlns:xlink="http://www.w3.org/1999/xlink" x="0px" y="0px"
	 viewBox="0 0 255 255" style="enable-background:new 0 0 255 255;" xml:space="preserve">
<style type="text/css">
	.st0{fill:#AAAAAA;stroke:#AAAAAA;stroke-width:7;stroke-miterlimit:10;}
	.st1{fill:#AAAAAA;}
</style>
<g>
	<path class="st0" d="M78.4,17.2c0.7-4.2,2.8-5.3,6.3-3.2c2.1,4.2,4.2,10.2,6.3,17.9h52.6c2.8,2.1,2.8,4.2,0,6.3h-22.1
		c-3.5,25.3-13.3,47.3-29.5,66.3c15.4,11.9,32.6,20.7,51.6,26.3c2.1,3.5,1.4,5.6-2.1,6.3c-19.6-5.6-37.9-14.7-54.7-27.4
		c-17.5,12.6-38.6,21.7-63.1,27.4c-4.2-0.7-4.9-2.8-2.1-6.3c23.8-5.6,43.8-14.4,60-26.3C65.5,88.4,54.9,66.3,50,38.3H26.9
		c-3.5-2.1-3.5-4.2,0-6.3h56.8C83,27.1,81.2,22.2,78.4,17.2z M115.3,38.3H57.4c4.2,26,14,46.6,29.5,62.1
		C101.6,82.8,111.1,62.1,115.3,38.3z"/>
</g>
<g>
	<path class="st1" d="M244.1,234.8h-17l-12.2-32.7h-49.7l-11.5,32.7h-17l45.5-119.4h16.5L244.1,234.8z M210.1,188.6l-18-49.6
		c-0.6-1.6-1.2-4.4-1.8-8.3h-0.4c-0.6,3.6-1.2,6.4-1.9,8.3l-17.9,49.6H210.1z"/>
</g>
<g>
	<g>
		<path class="st1" d="M53.2,144.4c-1.4,4.2-2.5,8.3-3.3,12.4c-0.8,4.1-1.1,8.2-0.8,12c0.3,3.8,1.4,7.3,3.1,10.2
			c1.7,2.9,4,5.3,6.8,7.3c1.4,1,2.9,1.8,4.5,2.6c0.8,0.4,1.6,0.7,2.5,1c0.8,0.3,1.7,0.6,2.5,0.9c3.3,1.1,6.8,1.6,10.4,1.9
			c3.7,0.3,7.6,0.3,11.7,0.3c4.1,0,8.4-0.1,12.8,0.2v19c-4.2,0.2-8.5,0.3-13,0.2c-4.5-0.1-9.2-0.5-14-1.4c-4.8-0.9-9.8-2.5-14.4-4.9
			c-1.1-0.6-2.2-1.2-3.3-1.9c-1.1-0.7-2.1-1.4-3.2-2.1c-2.1-1.5-4.1-3.2-5.9-5.1c-3.6-3.8-6.5-8.5-8-13.5c-1.5-5.1-1.6-10.3-0.7-15
			c0.4-2.4,1.1-4.7,1.9-6.8c0.8-2.2,1.7-4.3,2.8-6.2C47.8,151.3,50.3,147.7,53.2,144.4z"/>
		<g>
			<polygon class="st1" points="88.5,222.3 96.8,202.6 88.5,182.9 135.2,202.6 			"/>
		</g>
	</g>
</g>
</svg>
