<svg t="1705039432939" class="icon" viewBox="0 0 1024 1024" version="1.1" xmlns="http://www.w3.org/2000/svg" p-id="7202" width="200" height="200"><path d="M257.024 79.2576c-28.16 0-53.76 5.12-79.4624 17.92-15.36 7.68-20.48 28.0576-7.68 40.8576l87.1424 86.8352-30.72 30.6176-87.1424-86.8352c-4.608-5.0176-11.1616-7.8848-17.92-7.68-10.24 0-17.92 5.12-23.04 15.36-33.28 66.3552-23.04 150.6304 33.28 206.848C167.3216 418.816 210.944 434.176 257.024 434.176c20.48 0 40.96-2.56 58.9824-10.24l284.4672 283.4432c-23.04 63.7952-7.68 135.3728 40.96 186.368 35.84 35.7376 79.4624 51.0976 125.5424 51.0976 28.16 0 53.76-5.12 79.4624-17.92 15.36-7.68 20.48-28.0576 7.68-40.8576L766.976 799.232l30.72-30.6176 87.1424 86.8352c4.608 5.0176 11.1616 7.8848 17.92 7.68 10.24 0 17.92-5.12 23.04-15.36 33.28-66.3552 23.04-150.6304-33.28-206.848C856.6784 605.184 813.056 589.824 766.976 589.824c-20.48 0-40.96 2.56-61.44 10.24L420.9664 316.7232c23.04-63.7952 7.68-135.3728-40.96-186.368-32.5632-32.8704-76.8-51.2-122.9824-51.0976z m-33.28 229.7856c12.8 0 25.6-5.12 35.9424-15.36l30.72-30.6176c19.7632-18.7392 20.5824-49.8688 1.8432-69.632l-1.8432-1.8432-58.9824-58.7776c7.68 0 15.36-2.56 23.04-2.56 33.28 0 66.6624 12.8 89.7024 38.2976 35.84 35.7376 46.1824 86.8352 30.72 132.8128-7.68 17.92-2.56 38.2976 12.8 53.6576l284.4672 283.4432c10.24 10.24 23.04 15.36 35.9424 15.36 5.12 0 12.8 0 17.92-2.56 13.9264-5.2224 28.672-7.7824 43.52-7.68 33.28 0 66.6624 12.8 89.7024 38.2976 30.72 30.6176 43.6224 71.4752 35.9424 112.3328l-58.9824-58.7776c-9.4208-9.728-22.4256-15.2576-35.9424-15.36-12.8 0-25.6 5.12-35.84 15.36l-30.72 30.6176c-9.728 9.3184-15.2576 22.2208-15.36 35.7376 0 12.8 5.12 25.4976 15.36 35.7376l58.9824 58.7776c-7.68 0-15.36 2.56-23.04 2.56-33.28 0-66.6624-12.8-89.7024-38.2976-35.84-35.7376-46.1824-86.8352-30.72-132.8128 7.68-17.92 2.56-38.2976-12.8-53.6576L351.8464 390.7584c-9.4208-9.728-22.4256-15.2576-35.9424-15.36-5.12 0-10.24 0-17.92 2.56-13.9264 5.2224-28.672 7.7824-43.52 7.68-33.28 0-66.6624-12.8-89.7024-38.2976-30.72-30.6176-43.6224-71.4752-35.9424-112.3328l58.9824 58.7776c10.3424 10.1376 23.1424 15.2576 35.9424 15.2576zM320.512 577.536c15.6672 0 28.7744 5.2224 36.6592 15.7696l73.4208 73.4208c20.2752 19.3536 21.0944 51.4048 1.7408 71.68l-1.7408 1.7408-188.7232 188.928c-9.6256 9.9328-22.8352 15.6672-36.7616 15.7696-13.1072 0-26.2144-5.2224-36.6592-15.7696l-73.4208-73.4208c-20.2752-19.3536-21.0944-51.4048-1.7408-71.68l1.7408-1.7408 188.8256-188.8256c10.4448-10.5472 23.552-15.7696 36.6592-15.872zM207.7696 892.3136L396.5952 703.488l-73.4208-73.4208-188.8256 188.8256 73.4208 73.4208z m637.3376-813.056c7.8848 0 15.7696 2.56 18.3296 7.8848l73.4208 73.4208c10.1376 9.6256 10.5472 25.7024 0.8192 35.84-0.3072 0.3072-0.512 0.6144-0.8192 0.8192L808.3456 325.7344c-4.9152 4.8128-11.4688 7.5776-18.3296 7.8848-6.8608-0.3072-13.4144-3.072-18.3296-7.8848l-18.3296-18.3296-128.6144 128.512c-4.9152 4.7104-11.4688 7.5776-18.3296 7.7824-6.8608-0.3072-13.4144-3.072-18.3296-7.8848-10.1376-9.6256-10.5472-25.7024-0.8192-35.84 0.3072-0.3072 0.512-0.6144 0.8192-0.8192l128.512-128.512-18.432-18.3296c-10.1376-9.6256-10.5472-25.7024-0.8192-35.84 0.3072-0.3072 0.512-0.6144 0.8192-0.8192L826.7776 87.04c4.608-5.12 11.3664-7.9872 18.3296-7.7824z m0 62.8736l-91.7504 91.7504 18.3296 18.432 18.3296 18.3296 91.7504-91.7504-36.6592-36.7616z"  fill="#b3b3b3"  p-id="7203"></path></svg>