<?xml version="1.0" encoding="utf-8"?>
<!-- Generator: Adobe Illustrator 28.0.0, SVG Export Plug-In . SVG Version: 6.00 Build 0)  -->
<svg version="1.1" id="图层_1" xmlns="http://www.w3.org/2000/svg" xmlns:xlink="http://www.w3.org/1999/xlink" x="0px" y="0px"
	 viewBox="0 0 255 255" style="enable-background:new 0 0 255 255;" xml:space="preserve">
<style type="text/css">
	.st0{fill:#0071BC;}
	.st1{fill:#FFFFFF;}
</style>
<g>
	<path class="st0" d="M191,255H64c-35.3462,0-64-28.6538-64-64V64C0,28.6538,28.6538,0,64,0h127c35.3462,0,64,28.6538,64,64v127
		C255,226.3462,226.3462,255,191,255z"/>
</g>
<g>
	<path class="st1" d="M41.6855,205.8975v-4.5088c6.2554-0.9756,11.0483-3.0049,14.3809-6.0938
		c3.3306-3.0869,6.8247-9.0186,10.481-17.793l57.644-140.6372h4.5088l61.4229,141.3687c4.1436,9.5879,7.7178,15.7822,10.7246,18.585
		c3.0039,2.8027,8.2871,4.3262,15.8428,4.5703v4.5088h-67.3936v-4.5088c7.7178-0.6494,12.6934-1.9502,14.9287-3.9004
		c2.2334-1.9502,3.3516-4.4668,3.3516-7.5557c0-3.8184-1.8701-10.0332-5.6064-18.6465l-42.0449-96.8857l-38.998,95.667
		c-3.6562,8.8574-5.4844,15.3564-5.4844,19.5c0,3.4121,1.1372,6.1143,3.4126,8.1035c2.2734,1.9922,6.8647,3.2295,13.771,3.7178
		v4.5088H41.6855z"/>
</g>
</svg>
