<?xml version="1.0" encoding="utf-8"?>
<!-- Generator: Adobe Illustrator 28.0.0, SVG Export Plug-In . SVG Version: 6.00 Build 0)  -->
<svg version="1.1" id="图层_1" xmlns="http://www.w3.org/2000/svg" xmlns:xlink="http://www.w3.org/1999/xlink" x="0px" y="0px"
	 viewBox="0 0 255 255" style="enable-background:new 0 0 255 255;" xml:space="preserve">
<style type="text/css">
	.st0{fill:url(#SVGID_1_);}
	.st1{fill:#FFFFFF;}
</style>
<linearGradient id="SVGID_1_" gradientUnits="userSpaceOnUse" x1="-0.6198" y1="161.8105" x2="254.505" y2="93.45">
	<stop  offset="2.286208e-03" style="stop-color:#34A6BC"/>
	<stop  offset="0.1147" style="stop-color:#309CBC"/>
	<stop  offset="0.4419" style="stop-color:#2684BD"/>
	<stop  offset="0.744" style="stop-color:#2075BD"/>
	<stop  offset="0.9952" style="stop-color:#1E70BD"/>
</linearGradient>
<path class="st0" d="M180.5,255H74.3c-41.1,0-74.4-33.3-74.4-74.4V74.4C-0.1,33.3,33.2,0,74.3,0h106.2c41.1,0,74.4,33.3,74.4,74.4
	v106.2C254.9,221.7,221.6,255,180.5,255z"/>
<g>
	<path class="st1" d="M196.4,212.8h-16.7c-5.7,0-10.7-3.9-12-9.4l-27.9-111c-2.2-8.7-9.4-9.7-12.4-9.7c-3,0-10.2,0.9-12.4,9.7
		l-27.9,111c-1.4,5.5-6.4,9.4-12,9.4H58.4c-8.1,0-14-7.6-12-15.5l28.9-115c6.1-24.3,27.1-40.7,52.2-40.7c12.5,0,24,4.1,33.2,11.2
		s15.9,17.3,19,29.5l28.9,115C210.4,205.2,204.5,212.8,196.4,212.8z"/>
</g>
</svg>
