<?xml version="1.0" encoding="utf-8"?>
<!-- Generator: Adobe Illustrator 28.0.0, SVG Export Plug-In . SVG Version: 6.00 Build 0)  -->
<svg version="1.1" id="图层_1" xmlns="http://www.w3.org/2000/svg" xmlns:xlink="http://www.w3.org/1999/xlink" x="0px" y="0px"
	 viewBox="0 0 255 255" style="enable-background:new 0 0 255 255;" xml:space="preserve">
<style type="text/css">
	.st0{fill:#999999;}
	.st1{fill:#FFFFFF;}
</style>
<g>
	<path class="st0" d="M127.5,255L127.5,255C57.1,255,0,197.9,0,127.5v0C0,57.1,57.1,0,127.5,0h0C197.9,0,255,57.1,255,127.5v0
		C255,197.9,197.9,255,127.5,255z"/>
</g>
<g>
	<path class="st1" d="M127.5,207.8l2.9,0.7l39.7,15.6v-10.4l-30-30c1.9-11.8,1.1-43.2,1.1-43.2l77.8,32.7V157l-78-59.7
		c0,0,0-37.2,0-43.6c0-9.8-4.9-27-13.6-27s-13.6,17.2-13.6,27c0,6.4,0,43.6,0,43.6L36,157v16.4l77.8-32.7c0,0-0.8,31.4,1.1,43.2
		l-30,30v10.4l39.7-15.6L127.5,207.8z"/>
</g>
</svg>
