<?xml version="1.0" encoding="utf-8"?>
<!-- Generator: Adobe Illustrator 28.0.0, SVG Export Plug-In . SVG Version: 6.00 Build 0)  -->
<svg version="1.1" id="图层_1" xmlns="http://www.w3.org/2000/svg" xmlns:xlink="http://www.w3.org/1999/xlink" x="0px" y="0px"
	 viewBox="0 0 255 255" style="enable-background:new 0 0 255 255;" xml:space="preserve">
<style type="text/css">
	.st0{fill:#FFFFFF;stroke:#000000;stroke-width:25.2927;stroke-miterlimit:10;}
	.st1{fill:none;stroke:#000000;stroke-width:25.2927;stroke-miterlimit:10;}
</style>
<line class="st0" x1="36.5785" y1="-13.4676" x2="168.6421" y2="118.596"/>
<g>
	<path d="M183.4119,116.1188c4.6069,0,8.938,1.794,12.1956,5.0515c6.7246,6.7247,6.7246,17.6665,0,24.3911
		c-3.2576,3.2576-7.5887,5.0516-12.1956,5.0516s-8.938-1.794-12.1956-5.0516c-6.7246-6.7247-6.7246-17.6665,0-24.3911
		C174.4739,117.9128,178.8051,116.1188,183.4119,116.1188 M183.4119,104.622c-7.3562,0-14.7124,2.8063-20.325,8.4189
		c-11.2252,11.2252-11.2252,29.4248,0,40.6499c5.6126,5.6126,12.9688,8.4189,20.325,8.4189s14.7124-2.8063,20.325-8.4189
		c11.2252-11.2252,11.2252-29.4248,0-40.6499C198.1243,107.4283,190.7681,104.622,183.4119,104.622L183.4119,104.622z"/>
</g>
<path class="st1" d="M103.5216,204.9524l0-95.5844c0-35.7874-14.2165-70.109-39.522-95.4144L52.1669,2.1209"/>
<g>
	<path d="M103.5216,209.0091c9.5101,0,17.2471,7.737,17.2471,17.2471s-7.737,17.2471-17.2471,17.2471
		s-17.2471-7.737-17.2471-17.2471S94.0115,209.0091,103.5216,209.0091 M103.5216,197.5123
		c-15.8748,0-28.7438,12.869-28.7438,28.7438S87.6468,255,103.5216,255s28.7438-12.869,28.7438-28.7438
		S119.3964,197.5123,103.5216,197.5123L103.5216,197.5123z"/>
</g>
</svg>
