<?xml version="1.0" standalone="no"?><!DOCTYPE svg PUBLIC "-//W3C//DTD SVG 1.1//EN" "http://www.w3.org/Graphics/SVG/1.1/DTD/svg11.dtd"><svg t="1760711331631" class="icon" viewBox="0 0 1024 1024" version="1.1" xmlns="http://www.w3.org/2000/svg" p-id="6056" xmlns:xlink="http://www.w3.org/1999/xlink" width="200" height="200"><path d="M948 392.79v20.44c-6.3 20.48-19.1 35.18-38.18 45.14A243.73 243.73 0 0 0 875.29 480c-4.49 3.41-8.46 10.33-8.8 15.89-1.12 18.61-6.54 40.52 1.16 55.11s29.17 21.74 44.61 32.16c2.82 1.9 5.74 3.66 8.43 5.73 19.1 14.66 28 39.57 19.52 62-10.2 27-21.57 53.61-34.36 79.44-11.73 23.69-35.13 33.27-61.57 27.74-17.72-3.71-35.2-8.69-53-11.87-5-0.89-11.58 1.32-15.93 4.31-33.19 22.77-47.86 51.74-28.75 91.21 0.71 1.46 0.48 3.35 0.8 5 6.52 33.63-6.11 56.91-38 70.13Q672 932.41 634.62 948h-23.85c-26.19-7.94-40.3-28.59-51-51.32-10.7-23-24.77-36.26-51.89-29.68-6.35 1.53-13.61 0.27-20.29-0.76-10.26-1.58-16.76 1.86-22 11.06-7.79 13.78-16.65 27-25.54 40.1-17.88 26.37-43 34-72.5 22.11-15.21-6.14-30.2-12.81-45.29-19.24-56.86-24.27-65-38.85-48.68-99.27 6.82-25.19 8.11-45.63-16.63-61-4.16-2.58-7.48-7-10.24-11.26-7.71-11.74-17.26-13.85-30.51-9.47-12.27 4.06-25.37 5.65-38.12 8.23-35.49 7.19-57.77-4.38-71.64-37.7C96 684.85 86.15 659.68 76 634.62v-20.44c7.1-26.48 26.85-41.55 49.85-52.31 24-11.2 38.19-26.2 31.25-54.62-1.29-5.29-0.22-11.36 0.64-16.94 1.76-11.47-2-18.87-12.62-24.7A410 410 0 0 1 102.28 438c-20.58-15-28.61-40-19.58-63.37 10-25.87 20.69-51.54 32.71-76.51 12.32-25.6 35.86-35.75 63.87-29.72 12.74 2.74 25.92 4.54 37.93 9.25 16.94 6.63 26-1.71 39.61-10.86 34.57-23.3 32.94-51.36 22.69-85.8-10.68-35.86 3.64-60.5 38-74.37Q355.15 91.39 392.79 76h23.84c21.79 8.47 36.84 24.5 45.66 45.3 12.35 29.13 31.69 43.26 64 36.59 4.85-1 10.55 1.59 15.17 0.22 6.25-1.86 13.77-4.52 17.33-9.35 10.4-14.1 18.49-29.9 28.63-44.22C603.54 81.8 627.65 74 653.33 84c25.32 9.84 50.29 20.72 74.85 32.35 23.48 11.12 35 35.29 29.87 60.61-3.72 18.3-9 36.29-12.46 54.64-0.94 5.06 0.79 12.32 4.1 16.15 12.21 14.13 23.5 34 39.13 38.88 16.12 5 37-4.5 55.64-8.36 35-7.24 58.5 4.53 72.25 37.41 10.7 25.62 20.86 51.42 31.29 77.11zM245.57 683c5.17 3.3 13.89 7.12 20.32 13.31 18.35 17.65 35.16 36.93 53.79 54.25 11.32 10.59 15.38 21.66 11.58 36.44-5.37 20.84-9.92 41.9-15.55 62.66-2.54 9.38-0.6 14.77 8.76 18.52q29.18 11.68 57.76 24.82c8.86 4.06 14.34 2.71 19.54-5.85 11.48-18.89 24-37.14 35.69-55.91 7.78-12.51 18.2-16.65 33-15.67a680.16 680.16 0 0 0 72.93 1.16c16.09-0.67 27.17 4.29 35.19 18.09 10.25 17.64 21.68 34.61 31.6 52.43 5.67 10.18 11.31 13.7 22.85 8.37a568 568 0 0 1 55.18-22.12c11.4-3.88 13.14-10.43 10.77-20.69-4.84-21-8.72-42.18-14.08-63-3.61-14 0.9-23.65 11.16-33 18.39-16.77 36.43-34 53.48-52.15 10.17-10.81 20.71-14.37 34.91-10.56 20.78 5.58 41.87 10 62.68 15.49 9.69 2.55 15.73 1.28 19.71-9.27A697.989 697.989 0 0 1 890.79 644c5.13-10.73 2.08-16.4-7.37-22-16.57-9.83-32.2-21.28-48.91-30.84-15.07-8.62-21.1-19.89-19.81-37.59 1.77-24.21 1.61-48.64 0.83-72.94-0.5-15.45 4.86-25.78 18.22-33.42 18.7-10.68 36.54-22.85 55.24-33.52 8.7-5 10.58-10.42 6.83-19.37q-12.46-29.77-24-59.9c-3.27-8.54-8.23-10.74-17.07-8.6-20.92 5-42.22 8.59-63 14.06-15.32 4-25.74-0.77-35.84-12.22-16.09-18.23-32.78-36.08-50.64-52.55-12-11-15.71-22.58-11.68-37.88 5.34-20.26 9.85-40.74 15.14-61 2.51-9.6 1.27-15.79-9.36-19.79-18.54-7-36.83-14.79-54.61-23.51-11.41-5.6-17.37-2.29-23.24 7.83-10 17.15-21.49 33.39-31.37 50.58-8.08 14.06-19 18.89-35.13 18-25.39-1.46-50.9-1.21-76.35-0.81-13.34 0.21-22.78-4.62-29.57-16-11.34-19-23.46-37.5-34.45-56.67-5.15-9-10.56-12-20.53-7.69q-28.87 12.38-58.35 23.33c-10.2 3.79-12 9.43-9.29 19.65 5.42 20.81 9.13 42.07 14 63 3 13-0.5 22.82-10.35 31.87-20.41 18.75-40.32 38.06-59.94 57.64-8.82 8.8-17.86 12.66-30.49 9.29-21.88-5.85-44.22-10-66-16.09-10-2.81-14.47 0.2-18.06 9.1-7.63 18.9-15.41 37.79-24.2 56.17-5.07 10.59-2.31 16.18 7.25 21.83 17.55 10.39 34.09 22.5 51.68 32.81 13.93 8.17 19.12 18.93 18.15 35.08-1.52 25.4-1.54 50.92-1.13 76.38 0.21 13.28-3.84 22.87-15.46 29.71-19.05 11.21-37.58 23.31-56.72 34.38-8.86 5.12-11.95 10.7-7.64 20.62 8.11 18.7 16 37.53 23 56.69 3.7 10.2 9 12.5 19.23 10 23.58-5.69 47.47-10.45 75.77-16.63z" p-id="6057" fill="#B3B3B3"></path><path d="M507.25 692.85c-99.2-0.36-179.6-82-179.25-182 0.35-98.94 82.43-179.72 182.2-179.32 99.37 0.4 179.86 83.09 179.15 184-0.69 98.02-82.53 177.69-182.1 177.32z m0.5-48.38c71.17 0.81 133.4-60.63 133.25-131.47-0.2-72.2-60.67-133-131.92-132.65-71.45 0.36-131.48 59.64-132.22 130.59-0.8 71.81 58.89 132.71 130.89 133.53z" p-id="6058" fill="#B3B3B3"></path></svg>