<?xml version="1.0" standalone="no"?><!DOCTYPE svg PUBLIC "-//W3C//DTD SVG 1.1//EN" "http://www.w3.org/Graphics/SVG/1.1/DTD/svg11.dtd"><svg t="1766847059325" class="icon" viewBox="0 0 1024 1024" version="1.1" xmlns="http://www.w3.org/2000/svg" p-id="9870" xmlns:xlink="http://www.w3.org/1999/xlink" width="200" height="200"><path d="M930.996 192.783c2.554 5.838 4.743 12.65 6.325 20.434 1.58 7.784 2.432 15.933 2.432 24.326s-1.581 16.906-4.865 25.299-8.392 16.541-15.569 24.326c-7.784 7.784-14.717 14.595-20.92 20.433a737.434 737.434 0 0 0-16.055 15.569c-5.23 5.23-10.095 9.73-14.596 13.622L685.79 154.835c7.785-7.177 17.029-15.69 27.732-25.786 10.703-10.095 19.582-18.001 26.759-23.84 9.122-7.176 18.487-12.162 28.218-15.081 9.73-2.92 19.339-4.257 28.704-3.893 9.366 0.365 18.488 1.825 27.245 4.38 8.758 2.675 16.299 5.472 22.867 8.756 13.622 7.177 28.704 19.583 45.246 37.462 16.42 17.88 29.313 36.49 38.435 55.95zM173 667.625c3.892-3.892 13.014-13.136 27.245-27.731s32.11-32.597 53.517-54.004l359.05-359.05 181.959 182.93-209.203 209.203-77.843 78.816c-25.907 25.3-49.26 48.53-70.059 69.572s-37.948 38.435-51.571 52.058c-13.623 13.622-21.772 21.407-24.326 23.353-6.446 5.838-13.987 12.041-22.38 18.488-8.392 6.446-17.15 11.676-26.272 15.568-9.122 4.5-22.38 10.095-39.894 16.542-17.515 6.446-35.881 12.77-54.977 18.974-19.217 6.203-37.34 11.555-54.49 16.055s-29.92 7.42-38.435 8.757c-17.515 1.947-29.191-0.608-35.03-7.784-5.838-7.176-7.419-19.096-4.864-36.002 1.337-9.122 4.378-22.258 9.243-39.408 4.866-17.15 10.096-35.03 15.569-53.517s10.825-35.516 16.055-51.085c5.23-15.568 9.366-26.272 12.65-32.11 3.892-9.122 8.27-17.393 13.136-24.812 4.865-7.42 11.798-15.69 20.92-24.813z" p-id="9871" fill="#ffffff"></path></svg>